<?xml version="1.0" encoding="UTF-8" standalone="no"?>
<svg
   width="256"
   height="256"
   fill="none"
   viewBox="0 0 256 256"
   version="1.1"
   id="svg11"
   sodipodi:docname="friendly.svg"
   inkscape:version="1.4.3 (0d15f75042, 2025-12-25)"
   xmlns:inkscape="http://www.inkscape.org/namespaces/inkscape"
   xmlns:sodipodi="http://sodipodi.sourceforge.net/DTD/sodipodi-0.dtd"
   xmlns="http://www.w3.org/2000/svg"
   xmlns:svg="http://www.w3.org/2000/svg">
  <sodipodi:namedview
     id="namedview11"
     pagecolor="#ffffff"
     bordercolor="#000000"
     borderopacity="0.25"
     inkscape:showpageshadow="2"
     inkscape:pageopacity="0.0"
     inkscape:pagecheckerboard="0"
     inkscape:deskcolor="#d1d1d1"
     inkscape:zoom="2.4921875"
     inkscape:cx="128.20063"
     inkscape:cy="128"
     inkscape:window-width="1536"
     inkscape:window-height="891"
     inkscape:window-x="0"
     inkscape:window-y="0"
     inkscape:window-maximized="1"
     inkscape:current-layer="svg11" />
  <!-- SVG created with Arrow, by QuiverAI (https://quiver.ai) -->
  <path
     d="m 178.9,22 c -24.75,0 -41.92,11.77 -52.08,23.18 l -0.32,0.32 -0.24,0.31 C 114.61,32.99 97.06,22 73.06,22 35.11,22 4,52.91 4,93.71 c 0,23.44 9.91,42.08 30.95,63.36 l 0.32,0.32 c 4.94,4.78 9.96,8.72 12.47,10.64 v 2.08 l 1.68,2.51 c 4.09,4.54 35.77,34.11 48.51,46.04 9.24,8.77 20.69,14.42 32.98,14.34 13.3,-0.08 24.25,-4.78 34.17,-14.1 8.61,-8.19 21.59,-20.28 29.1,-27.27 7.28,-6.82 9.79,-13.96 9.95,-18.82 12.12,-0.58 22.99,-15.58 23.15,-22.88 16.69,-17.02 25.46,-35.5 25.46,-56.69 C 252.74,57.11 223.33,22 180.66,22 Z"
     fill="url(#paint0_linear_303_1155)"
     id="path1"
     style="display:inline" />
  <path
     d="m 180.7,30.02 c -24.55,0 -39.55,13.14 -47.82,21.57 L 92.85,90.58 c -6.58,6.5 -4.66,16.57 3.22,19.72 6.09,2.51 11.94,-0.82 14.45,-4.23 l 41.24,-40.91 c 9.4,-9.08 19.09,-12.49 29.25,-12.49 21.81,0 37.94,19.68 37.94,39.74 0,11.25 -4.4,20.95 -9.74,26.45 l 11.11,11.17 5.18,6 c 11.45,-12.66 17.46,-26.47 17.46,-44.43 0,-31.53 -26.31,-61.58 -62.26,-61.58 z"
     fill="url(#paint1_linear_303_1155)"
     id="path2"
     style="display:inline" />
  <path
     d="m 73.06,30.02 c -33.92,0 -60.77,29 -60.77,62.71 0,21.78 9.41,38.33 29.22,56.2 11.92,9.91 23.11,16.33 36.65,16.33 h 2.23 c 12.58,0 20.85,-4.78 26.78,-11.92 l 37.95,-36.99 c 5.85,-5.82 13.05,-4.57 16.16,0.41 l 37.21,36.89 c 4.69,4.13 4.37,9.26 7.64,9.42 7.28,0.24 11.21,-11.01 11.21,-15.3 0,-6.58 -3.46,-11.04 -6.41,-13.39 L 166.71,89.61 c -5.02,-4.78 -8.21,-6.03 -12.76,-5.87 -5.34,0.16 -8.67,3.49 -11.54,6.37 l -44.07,43.61 c -5.37,4.96 -11.3,6.29 -18.19,6.05 -10.87,-0.32 -19.14,-7.81 -26.04,-14.85 -8.84,-9 -14.1,-15.96 -18.2,-30.16 C 35.03,72.27 50.92,52.91 73.06,52.67 h 2.23 c 12.22,0 21.45,5.82 28.04,12.34 L 118.62,48.94 C 107.45,37.09 93.75,30.02 75.29,30.02 Z"
     fill="url(#paint2_linear_303_1155)"
     id="path3"
     style="display:inline" />
  <path
     d="m 151,126.6 c -8.28,0 -11.55,7.78 -11.23,12.08 0.16,3.86 1.33,5.47 4.43,8.62 l 25.85,25.48 c 3.19,3.25 1.59,9.25 -3.91,9.25 -2.23,0 -3.67,-1.41 -4.87,-2.58 l -25.61,-24.83 c -3.11,-3.49 -5.62,-4.66 -9.24,-4.66 -7.81,-0.24 -10.4,7.07 -9.81,12.05 0.4,3.71 2.32,6.06 4.55,8.26 l 24.39,24.84 c 2.95,2.88 2.55,9.04 -3.3,9.5 -3.28,0.24 -5.66,-2.19 -6.99,-3.8 l -35.22,-32.7 c -6.14,4.08 -12.38,4.98 -19.9,4.82 -6.89,-0.15 -12.24,-1.72 -18.09,-4.23 l -2.95,2.8 c 5.69,5.22 32.29,30.53 40.86,38.55 8.76,8.33 17.84,12.79 29.88,12.71 11.62,-0.08 20.56,-4.38 28.52,-12.05 8.69,-8.13 19.8,-17.96 28.38,-26.02 5.43,-5.24 8.02,-9.37 7.43,-14.42 -0.6,-5.32 -4.3,-9.04 -7.51,-11.92 L 158.8,129.67 c -2.07,-2.1 -3.69,-3.07 -7.8,-3.07 z"
     fill="url(#paint3_linear_303_1155)"
     id="path4"
     style="display:inline" />
  <defs
     id="defs11">
    <linearGradient
       id="paint0_linear_303_1155"
       x1="128.4"
       x2="128.4"
       y1="22"
       y2="233"
       gradientUnits="userSpaceOnUse">
      <stop
         stop-color="#010101"
         offset="0"
         id="stop4" />
      <stop
         stop-color="#030303"
         offset="1"
         id="stop5" />
    </linearGradient>
    <linearGradient
       id="paint1_linear_303_1155"
       x1="167.9"
       x2="167.9"
       y1="30.02"
       y2="136"
       gradientUnits="userSpaceOnUse">
      <stop
         stop-color="#FEF032"
         offset="0"
         id="stop6" />
      <stop
         stop-color="#FEC711"
         offset="1"
         id="stop7" />
    </linearGradient>
    <linearGradient
       id="paint2_linear_303_1155"
       x1="125.1"
       x2="125.1"
       y1="30.02"
       y2="165.3"
       gradientUnits="userSpaceOnUse">
      <stop
         stop-color="#FEF032"
         offset="0"
         id="stop8" />
      <stop
         stop-color="#FECF1A"
         offset="1"
         id="stop9" />
    </linearGradient>
    <linearGradient
       id="paint3_linear_303_1155"
       x1="126.7"
       x2="126.7"
       y1="126.6"
       y2="222.8"
       gradientUnits="userSpaceOnUse">
      <stop
         stop-color="#FECE1B"
         offset="0"
         id="stop10" />
      <stop
         stop-color="#FCB90C"
         offset="1"
         id="stop11" />
    </linearGradient>
  </defs>
</svg>
